<?xml version="1.0" encoding="utf-8"?>
<!-- Generator: Adobe Illustrator 19.2.1, SVG Export Plug-In . SVG Version: 6.00 Build 0)  -->
<svg version="1.1" id="Double_T_x5F_4C" xmlns="http://www.w3.org/2000/svg" xmlns:xlink="http://www.w3.org/1999/xlink" x="0px"
	 y="0px" viewBox="0 0 7 8" style="enable-background:new 0 0 7 8;" xml:space="preserve">
<style type="text/css">
	.st0{fill:#B3B4B6;}
	.st1{fill:#CC0000;}
	.st2{fill:#FFFFFF;}
</style>
<g id="Double_T_x5F_4C_1_">
	<path id="Black" d="M10.3,1.3H8.4v2.8H5.8v3.3H7v4.5H0V7.4h1.3V4.1h-2.6V1.2h-1.9v-5.2h13.6V1.3z M7.3,11.7c0-0.1,0.1-0.2,0.2-0.2
		c0.1,0,0.2,0.1,0.2,0.2c0,0.1-0.1,0.2-0.2,0.2C7.5,11.9,7.3,11.8,7.3,11.7z M7.6,11.9c0.2,0,0.3-0.1,0.3-0.3s-0.1-0.3-0.3-0.3
		c-0.2,0-0.3,0.1-0.3,0.3C7.3,11.8,7.4,11.9,7.6,11.9z M7.5,11.7L7.5,11.7l0.2,0.1h0l-0.1-0.1c0,0,0.1,0,0.1-0.1
		c0-0.1,0-0.1-0.1-0.1H7.5v0.3h0L7.5,11.7L7.5,11.7z M7.5,11.6L7.5,11.6L7.5,11.6c0.1-0.1,0.1-0.1,0.1,0C7.6,11.6,7.6,11.6,7.5,11.6
		L7.5,11.6L7.5,11.6z"/>
	<path id="Gray" class="st0" d="M2,3.1H1.6H1v0.7h-1.9l0.3-0.3h1.3V2.8h2.2L2.6,3.1L2,3.1L2,3.1z M0-0.6v1.2h-2.6l-0.4,0.3h3.2v-1.2
		h1.3L2-0.6L0-0.6L0-0.6z M9.7,0.6H7L6.7,0.9H10v-4.5L9.6-3.2L9.7,0.6L9.7,0.6z M5.1-0.6v1.9h0.3v-1.5h1.3L7-0.6H5.1L5.1-0.6z
		 M5.1,10.3H2l-0.3,0.3h3.8V8.7l0,0L5.1,9l0,0l0,0V10.3L5.1,10.3z M4.2,2.8V9l0,0l0.3-0.3l0,0V3.1h0.6V8h1.3v0v3.2H0.6l-0.3,0.3h6.4
		V7.7H5.4V3.1h0.6l0.3-0.3L4.2,2.8L4.2,2.8z M7.7,3.4H6.4L6.1,3.8H8V1.3L7.7,1.6L7.7,3.4L7.7,3.4z"/>
	<path id="Red" class="st1" d="M0,2.8l-0.7,0.6V1.5h8.3L7.1,2.2H3.5H0L0,2.8L0,2.8z M5.1,9L5.1,9h-1L3.5,9.6h1L5.1,9z M7.1,2.2
		L6.4,2.8v0.6l0.7-0.6V2.2z M-1.3-2h4.9l0,0h4.8l1.3-1.3H-2.6v3.8l1.2-1.2L-1.3-2L-1.3-2z M8.4-2L7-0.6v1.2l1.3-1.2V-2z M2-0.6v1.9
		h1.6V-2L2-0.6z M4.5,8.7h1l0,0l0,0v0.3l1-0.9v0H5.1L4.5,8.7L4.5,8.7L4.5,8.7z M2,9v1.3l0.6-0.7h0.9V2.2L2.9,2.8V9L2,9L2,9z
		 M1.7,8.7h0.9V3.1H2V8H0.6v3.3l1-1.1V8.7z"/>
	<path id="White" class="st2" d="M7,0.6L6.7,0.9v-1.2L7-0.6V0.6z M-2.9,0.9l0.4-0.3v-3.8H9.7L10-3.6H-2.9L-2.9,0.9L-2.9,0.9z
		 M3.6,1.2H2v-1.9L1.6-0.3v1.5h-2.6v2.5l0.3-0.3V1.5h8.3L8,1.2H5.5H5.2H3.6L3.6,1.2z M0.6,8H2V3.1H1.6v4.6H0.3v3.8l0.3-0.3V8L0.6,8z
		 M6.4,2.8L6.1,3.1v0.7l0.3-0.3V2.8z M5.1,9L5.1,9l0.3-0.3l0,0l0,0h-1l0,0l0,0L4.2,9l0,0H5.1z M1.7,8.7v1.6v0.4L2,10.3V9h0.9V2.8
		L2.6,3.1v5.6L1.7,8.7L1.7,8.7z"/>
</g>
</svg>
